<svg xmlns="http://www.w3.org/2000/svg" width="162" height="60" viewBox="0 0 162 60"> <g> <g> <path fill="#fff" d="M81.087 49.976c-14.908 0-27.036-12.128-27.036-27.034h1.33c0 14.174 11.531 25.704 25.706 25.704 14.173 0 25.705-11.53 25.705-25.704h1.33c0 14.906-12.128 27.034-27.035 27.034m-.001-47.594c-11.372 0-20.623 9.252-20.623 20.622 0 11.371 9.251 20.624 20.623 20.624 11.372 0 20.623-9.253 20.623-20.624 0-11.37-9.251-20.622-20.623-20.622 0 0 11.372 0 0 0zm0-2.378c12.682 0 23.001 10.318 23.001 23 0 12.683-10.319 23-23.001 23s-23-10.317-23-23c0-12.682 10.318-23 23-23 0 0-12.683 0 0 0zM24.078 48.636V24.307H.337v-1.365H49.12v1.365h-23.74v24.329zm112.87 0V24.307h-23.741v-1.365h48.784v1.365h-23.74v24.329zm-133.81 7.17c-.112-.503-.656-.72-1.143-.71-.374.007-.79.135-1.014.422a.727.727 0 0 0-.135.519c.04.576.67.648 1.27.702.766.097 1.716.297 1.931 1.191.025.12.04.256.04.367 0 1.078-1.07 1.702-2.075 1.702-.863 0-1.91-.511-2.013-1.51l-.007-.152.814-.015.008.119v-.032c.055.519.687.79 1.206.79.598 0 1.253-.336 1.253-.91a.873.873 0 0 0-.024-.193c-.096-.422-.67-.493-1.23-.55-.87-.087-1.892-.279-1.98-1.444v.007a1.51 1.51 0 0 1 .304-1.061c.375-.488 1.045-.743 1.692-.743.863 0 1.757.447 1.901 1.468zm24.743-1.55l1.573 2.563 1.589-2.563h.959l-2.14 3.418v2.275h-.815v-2.275l-2.116-3.418zm27.613 1.55c-.111-.503-.654-.72-1.142-.71-.374.007-.79.135-1.014.422a.732.732 0 0 0-.135.519c.04.576.67.648 1.27.702.766.097 1.716.297 1.932 1.191.024.12.04.256.04.367 0 1.078-1.07 1.702-2.076 1.702-.863 0-1.909-.511-2.013-1.51l-.008-.152.814-.015.01.119v-.032c.055.519.686.79 1.205.79.599 0 1.254-.336 1.254-.91a.876.876 0 0 0-.025-.193c-.096-.422-.67-.493-1.229-.55-.87-.087-1.893-.279-1.98-1.444v.007c-.031-.375.063-.75.303-1.061.375-.488 1.046-.743 1.692-.743.863 0 1.757.447 1.901 1.468zm25.194 4.144v-4.88h-1.694v-.764h4.185v.765h-1.685v4.879zm25.704-.854h2.591v.804h-3.405v-5.636h3.397v.805h-2.583v1.57h2.527v.814h-2.527zm24.642.804h-.806V54.32h.654l1.842 2.711 1.843-2.711h.637V59.9h-.798v-3.93l-1.459 2.17h-.454l-1.46-2.17zm30.003-4.137c-.111-.503-.654-.718-1.14-.71-.374.008-.79.135-1.013.423a.73.73 0 0 0-.134.519c.039.573.668.645 1.266.7.766.096 1.715.296 1.93 1.19.024.119.04.254.04.366 0 1.076-1.069 1.698-2.073 1.698-.86 0-1.906-.509-2.01-1.507l-.008-.151.814-.016.009.12v-.032c.055.517.685.79 1.204.79.597 0 1.25-.337 1.25-.91a.892.892 0 0 0-.023-.193c-.096-.422-.67-.492-1.227-.55-.87-.086-1.891-.278-1.978-1.442v.007a1.51 1.51 0 0 1 .303-1.06c.375-.486 1.044-.741 1.69-.741.861 0 1.754.446 1.898 1.467z"></path> </g> <g> <path fill="#ff3" d="M81.086 2.382c11.372 0 20.623 9.252 20.623 20.622 0 11.371-9.251 20.624-20.623 20.624-11.372 0-20.623-9.253-20.623-20.624 0-11.37 9.251-20.622 20.623-20.622 11.372 0 0 0 0 0zm0-2.378c-12.682 0-23 10.318-23 23 0 12.683 10.318 23 23 23s23.001-10.317 23.001-23c0-12.682-10.319-23-23.001-23-12.683 0 0 0 0 0z"></path> </g> </g> </svg>